<?xml version="1.0" ?>
<svg viewBox="0 0 20 20" xmlns="http://www.w3.org/2000/svg">
  <g fill="#AFB6C4">
    <!-- <path d="M10 20a10 10 0 1 1 0-20 10 10 0 0 1 0 20zm0-2a8 8 0 1 0 0-16 8 8 0 0 0 0 16zM6.5 9a1.5 1.5 0 1 1 0-3 1.5 1.5 0 0 1 0 3zm7 0a1.5 1.5 0 1 1 0-3 1.5 1.5 0 0 1 0 3zm2.16 3a6 6 0 0 1-11.32 0h11.32z"/> -->
    <!-- <path d="M10 20a10 10 0 1 1 0-20 10 10 0 0 1 0 20zm0-2a8 8 0 1 0 0-16 8 8 0 0 0 0 16zM6.5 9a1.5 1.5 0 1 1 0-3 1.5 1.5 0 0 1 0 3zm7 0a1.5 1.5 0 1 1 0-3 1.5 1.5 0 0 1 0 3zM7 13h6a1 1 0 0 1 0 2H7a1 1 0 0 1 0-2z"/> -->
    <path d="M10 20a10 10 0 1 1 0-20 10 10 0 0 1 0 20zm0-2a8 8 0 1 0 0-16 8 8 0 0 0 0 16zM6.5 9a1.5 1.5 0 1 1 0-3 1.5 1.5 0 0 1 0 3zm7 0a1.5 1.5 0 1 1 0-3 1.5 1.5 0 0 1 0 3zm2.16 6H4.34a6 6 0 0 1 11.32 0z"/>
  </g>
</svg>